<svg width="34" height="33" viewBox="0 0 34 33" fill="none" xmlns="http://www.w3.org/2000/svg">
<ellipse cx="16.8178" cy="16.3981" rx="16.6809" ry="16" fill="#3E7EFF"/>
<ellipse cx="16.8178" cy="16.3981" rx="16.6809" ry="16" fill="white" fill-opacity="0.9"/>
<path fillRule="evenodd" clipRule="evenodd" d="M25.2361 15.2021L15.6034 9.63934C15.0467 9.31765 14.1431 9.31765 13.5901 9.63934L8.4249 12.6394C7.87188 12.9611 7.87549 13.4852 8.43213 13.8069L18.0649 19.3697C18.6215 19.6914 19.5251 19.6914 20.0782 19.3697L25.2397 16.3696C25.7964 16.0479 25.7927 15.5238 25.2361 15.2021ZM13.0081 13.0009C13.3479 13.196 13.8937 13.196 14.2298 13.0009C14.566 12.8057 14.5624 12.4876 14.2262 12.2924C13.8865 12.0972 13.3407 12.0972 13.0045 12.2924C12.6684 12.4876 12.6684 12.8057 13.0081 13.0009ZM14.6238 13.2286C15.8383 12.5237 17.8118 12.5237 19.0336 13.2286C20.2553 13.9334 20.2625 15.0756 19.048 15.7841C17.8335 16.4889 15.86 16.4889 14.6383 15.7841C13.4166 15.0792 13.4093 13.9334 14.6238 13.2286ZM18.3161 14.3888C18.3685 14.3717 18.4209 14.3545 18.4733 14.3382C18.5456 14.3166 18.5601 14.284 18.5203 14.2443C18.4697 14.1647 18.401 14.0924 18.3143 14.0238C18.2022 13.9334 18.2022 13.9334 18.336 13.8575C18.4298 13.8016 18.4768 13.7736 18.4765 13.746C18.4762 13.7184 18.4283 13.6913 18.3323 13.637C18.3179 13.6298 18.3043 13.6217 18.2908 13.6135C18.2772 13.6054 18.2637 13.5973 18.2492 13.59C18.1588 13.5394 18.1263 13.5394 18.0359 13.59L18.0359 13.59L18.0359 13.5901C17.9962 13.6117 17.9564 13.6334 17.9167 13.6587L17.9112 13.6618C17.8591 13.6919 17.8311 13.708 17.8013 13.7126C17.7668 13.7178 17.7298 13.7075 17.6501 13.6853L17.6456 13.684C17.2697 13.5828 16.9154 13.5936 16.5974 13.7563C16.319 13.9009 16.2793 14.0852 16.366 14.2876C16.4022 14.372 16.4608 14.4499 16.5194 14.5278L16.5195 14.5278C16.5488 14.5668 16.5781 14.6057 16.6046 14.6455C16.6371 14.6925 16.6624 14.7358 16.6697 14.7864C16.6913 14.9346 16.4817 15.0286 16.2468 14.9744C16.1564 14.9527 16.0769 14.9238 16.0082 14.884C16.0021 14.88 15.9958 14.8759 15.9893 14.8718C15.9726 14.8612 15.9551 14.8501 15.9395 14.837C15.813 14.7395 15.7082 14.6382 15.6467 14.5226C15.6323 14.4973 15.6214 14.4828 15.6034 14.472C15.5745 14.4575 15.5347 14.4611 15.466 14.4828C15.419 14.4973 15.3729 14.5126 15.3269 14.528C15.2808 14.5434 15.2347 14.5587 15.1877 14.5732C15.0612 14.6166 15.0503 14.6346 15.0973 14.7141C15.1588 14.8154 15.2564 14.9057 15.3648 14.9925C15.4516 15.0611 15.4516 15.0648 15.3467 15.1262C15.3201 15.1439 15.2922 15.1603 15.2637 15.177L15.2637 15.177L15.2637 15.177L15.2637 15.177L15.2637 15.177L15.2637 15.177L15.2637 15.177C15.2457 15.1875 15.2275 15.1982 15.2094 15.2093C15.1516 15.2455 15.1443 15.2816 15.2058 15.3178C15.2202 15.3268 15.2347 15.3349 15.2491 15.3431C15.2636 15.3512 15.2781 15.3593 15.2925 15.3684C15.3142 15.3792 15.335 15.391 15.3558 15.4027L15.3558 15.4027C15.3766 15.4145 15.3973 15.4262 15.419 15.4371C15.4769 15.4696 15.5383 15.466 15.5961 15.4334L15.637 15.4109C15.6894 15.3821 15.7426 15.3529 15.7913 15.3214C15.8528 15.278 15.9142 15.278 15.9974 15.3033C16.1853 15.3648 16.3877 15.3901 16.601 15.3792C17.1938 15.3467 17.5624 15.0105 17.3926 14.6708C17.3508 14.5813 17.2893 14.4967 17.2285 14.413L17.2285 14.413L17.2285 14.413L17.2285 14.4129L17.2284 14.4129L17.2284 14.4129C17.2156 14.3952 17.2028 14.3776 17.1901 14.3599C17.1468 14.2985 17.1106 14.2406 17.0998 14.1756C17.0745 14.0491 17.2552 13.9732 17.4576 14.0202C17.5155 14.0346 17.5588 14.0527 17.6058 14.078C17.6275 14.0888 17.6492 14.0997 17.6673 14.1105C17.8082 14.19 17.9131 14.2876 17.9817 14.3997C17.9962 14.4214 18.0106 14.4358 18.0251 14.4467C18.054 14.4611 18.0938 14.4575 18.1588 14.4394C18.2113 14.4232 18.2637 14.406 18.3161 14.3888ZM20.6637 16.7166C20.3276 16.9118 19.7818 16.9118 19.442 16.7166C19.1059 16.5214 19.1022 16.2033 19.4384 16.0082C19.7745 15.813 20.3203 15.813 20.6601 16.0082C20.9999 16.2033 21.0035 16.5214 20.6637 16.7166ZM19.9625 18.148C20.0492 18.1986 20.1215 18.2528 20.183 18.3106L23.3023 16.5033C23.2011 16.4672 23.1035 16.4274 23.0168 16.3768C22.4493 16.0515 22.4493 15.5202 23.0096 15.1949C23.0963 15.1443 23.1867 15.1045 23.2879 15.0684L15.7841 10.7382C15.7335 10.7815 15.6793 10.8213 15.6142 10.8574C15.054 11.1827 14.1395 11.1827 13.5756 10.8574C13.5142 10.8213 13.4599 10.7851 13.413 10.7454L10.3298 12.5382C10.3984 12.5635 10.4635 12.596 10.5249 12.6322C11.0888 12.9575 11.0924 13.4852 10.5322 13.8105C10.4671 13.8467 10.3984 13.8792 10.3261 13.9081L17.8046 18.2275C17.8444 18.1986 17.8805 18.1733 17.9239 18.148C18.4842 17.8226 19.3986 17.8226 19.9625 18.148ZM8.17911 14.9202C8.4249 14.7937 8.80443 14.8117 9.03937 14.9491L19.1095 20.7613L24.553 17.5949C24.7879 17.4576 25.1747 17.4576 25.4132 17.5949C25.6518 17.7323 25.6518 17.9564 25.4168 18.0937L19.63 21.4553C19.348 21.6215 18.8854 21.6215 18.5998 21.4553L18.3974 21.3396L18.2564 21.2565L8.16104 15.4298C7.91525 15.2889 7.91886 15.0539 8.17911 14.9202ZM19.6372 23.2734L25.4241 19.9119C25.6626 19.7745 25.659 19.5504 25.4204 19.4167C25.1819 19.2793 24.7987 19.2793 24.5602 19.4167L19.1167 22.5794L9.05021 16.7672C8.81527 16.6299 8.43213 16.6118 8.18995 16.7383C7.92971 16.872 7.92248 17.107 8.16827 17.2479L18.2637 23.0746L18.4082 23.1577L18.607 23.2734C18.8926 23.4396 19.3553 23.4396 19.6372 23.2734Z" fill="#0E1F4F"/>
</svg>
