<svg width="40" height="40" viewBox="0 0 40 40" fill="none" xmlns="http://www.w3.org/2000/svg">
<circle cx="19.943" cy="19.9397" r="19.7245" fill="#FDE3E3"/>
<path fillRule="evenodd" clipRule="evenodd" d="M28.6236 21.6399C29.0129 21.1433 29.1997 20.6109 29.1758 20.0626C29.152 19.4586 28.8818 18.9858 28.6593 18.6958C28.9176 18.0521 29.0169 17.0389 28.1547 16.2522C27.523 15.6761 26.4502 15.4179 24.9642 15.4894C23.9216 15.5369 23.0491 15.7309 23.0096 15.7396L23.0094 15.7397H23.0054C22.8067 15.7754 22.5962 15.8192 22.3816 15.8668C22.3657 15.6125 22.4094 14.9808 22.8783 13.5584C23.4345 11.8658 23.4027 10.5705 22.775 9.70435C22.1154 8.79448 21.0625 8.72296 20.7526 8.72296C20.4546 8.72296 20.1804 8.84613 19.9858 9.07261C19.5447 9.58515 19.5964 10.5308 19.652 10.9678C19.1275 12.3744 17.6574 15.8231 16.4138 16.7807C16.39 16.7966 16.3701 16.8164 16.3502 16.8363C15.9847 17.2217 15.7384 17.6389 15.5715 18.0044C15.3371 17.8773 15.0709 17.8058 14.7848 17.8058H12.3611C11.4473 17.8058 10.7083 18.5488 10.7083 19.4586V25.9151C10.7083 26.829 11.4512 27.568 12.3611 27.568H14.7848C15.1384 27.568 15.4682 27.4568 15.7384 27.266L16.6721 27.3773C16.8151 27.3972 19.358 27.719 21.9684 27.6673C22.4412 27.7031 22.8862 27.723 23.2994 27.723C24.0106 27.723 24.6305 27.6673 25.147 27.5561C26.3628 27.2978 27.1932 26.7813 27.6144 26.0224C27.9362 25.4423 27.9362 24.8662 27.8845 24.5007C28.6752 23.7855 28.8143 22.9948 28.7865 22.4386C28.7706 22.1167 28.6991 21.8426 28.6236 21.6399ZM12.3611 26.4952C12.0393 26.4952 11.781 26.233 11.781 25.9151V19.4547C11.781 19.1328 12.0433 18.8746 12.3611 18.8746H14.7848C15.1066 18.8746 15.3649 19.1368 15.3649 19.4547V25.9112C15.3649 26.233 15.1026 26.4913 14.7848 26.4913H12.3611V26.4952ZM27.5349 21.8227C27.4078 21.6161 27.4395 21.3499 27.6064 21.1751C27.9521 20.8175 28.119 20.4559 28.1031 20.1023C28.0835 19.5827 27.6798 19.1936 27.6626 19.1771L27.662 19.1765C27.4634 18.9977 27.4197 18.7077 27.5667 18.4852C27.6183 18.4018 28.0753 17.623 27.4316 17.035C26.6727 16.3436 24.4874 16.5065 23.2676 16.7727C23.2597 16.7747 23.2508 16.7767 23.2418 16.7787C23.2329 16.7807 23.2239 16.7827 23.216 16.7847C22.9975 16.8204 22.767 16.8681 22.5246 16.9237C22.2704 17.0151 21.9207 17.0032 21.6585 16.7688C21.13 16.2999 21.1857 15.2351 21.8532 13.2127C22.2902 11.8857 22.3061 10.8844 21.9008 10.3242C21.5592 9.85136 20.991 9.79176 20.7804 9.78779C20.685 9.95069 20.6612 10.495 20.7287 10.94C20.7446 11.0314 20.7367 11.1228 20.7049 11.2062C20.6294 11.4128 18.8852 16.1847 17.1012 17.5992C16.6323 18.1038 16.4337 18.6958 16.3622 18.962C16.4098 19.1169 16.4377 19.2838 16.4377 19.4547V25.9151C16.4377 26.0343 16.4257 26.1535 16.4019 26.2648L16.8032 26.3125H16.8072C16.835 26.3164 19.4176 26.6502 21.9724 26.5946H22.028C23.2279 26.6899 24.2053 26.6621 24.9245 26.5072C25.8224 26.3164 26.4144 25.9747 26.6806 25.498C26.9451 25.0258 26.8037 24.5285 26.7891 24.4772C26.7883 24.4745 26.7879 24.4731 26.7879 24.4729C26.7085 24.2504 26.784 24.004 26.9707 23.861C27.4952 23.4676 27.7455 23.0067 27.7177 22.4862C27.6997 22.1419 27.5652 21.8817 27.5392 21.8315C27.5364 21.8261 27.5349 21.8231 27.5349 21.8227Z" fill="#A6374F"/>
</svg>
