<svg width="34" height="33" viewBox="0 0 34 33" fill="none" xmlns="http://www.w3.org/2000/svg">
<ellipse cx="16.9079" cy="16.5774" rx="16.6809" ry="16" fill="#3E7EFF"/>
<ellipse cx="16.9079" cy="16.5774" rx="16.6809" ry="16" fill="white" fill-opacity="0.9"/>
<path fillRule="evenodd" clipRule="evenodd" d="M9.72876 16.1793C9.72876 12.2207 12.9494 9 16.9081 9C20.8668 9 24.0874 12.2207 24.0874 16.1793C24.0874 20.138 20.8668 23.3586 16.9081 23.3586C12.9494 23.3586 9.72876 20.138 9.72876 16.1793ZM15.0833 21.1416C15.6466 21.9913 16.3358 22.4592 17.0239 22.4592C18.0536 22.4592 18.9885 21.4487 19.5793 19.9168H17.3079V21.0297C17.3079 21.2505 17.1289 21.4294 16.9081 21.4294C16.6874 21.4294 16.5084 21.2505 16.5084 21.0297V19.9168H14.4643C14.64 20.3726 14.8476 20.7861 15.0833 21.1416ZM10.5412 16.5791H11.8197C11.9754 17.2018 12.486 17.685 13.1233 17.8011C13.183 18.2611 13.2666 18.701 13.3717 19.1173H11.2463C10.846 18.349 10.5977 17.4896 10.5412 16.5791ZM19.2843 11.7671C18.7453 10.7118 18.0434 10.0603 17.3078 9.92593H17.3078V12.4391H18.8499C18.9279 12.1748 19.081 11.9427 19.2843 11.7671ZM20.2079 13.4551C19.8681 13.4551 19.5916 13.1786 19.5916 12.8388C19.5916 12.4989 19.8681 12.2225 20.2079 12.2225C20.5478 12.2225 20.8242 12.4989 20.8242 12.8388C20.8242 13.1786 20.5478 13.4551 20.2079 13.4551ZM20.0699 14.2477C19.4892 14.1913 19.0104 13.7825 18.85 13.2385H17.3079V15.7796H20.2213C20.2041 15.2571 20.1538 14.744 20.0699 14.2477ZM16.5083 15.7796H15.0192C14.8807 15.226 14.4619 14.7825 13.9229 14.6092C13.9873 14.1318 14.0818 13.6723 14.2021 13.2385H16.5083V15.7796ZM12.57 16.1793C12.57 16.6478 12.9511 17.0288 13.4195 17.0288C13.8879 17.0288 14.269 16.6478 14.269 16.1793C14.269 15.7109 13.8879 15.3298 13.4195 15.3298C12.951 15.3298 12.57 15.7109 12.57 16.1793ZM13.1238 14.5574C12.4863 14.6734 11.9755 15.1567 11.8197 15.7796H10.5412C10.5978 14.868 10.8466 14.0075 11.2478 13.2386H13.3756C13.2679 13.661 13.1831 14.1026 13.1238 14.5574ZM15.0192 16.5791C14.8808 17.1324 14.4622 17.5758 13.9235 17.7492C13.9878 18.2253 14.0811 18.6844 14.201 19.1173H16.5083V16.5791H15.0192ZM17.3078 19.1173V16.5791H20.2216C20.1909 17.4857 20.0568 18.3472 19.8426 19.1173H17.3078ZM21.9983 16.5791H21.0214C20.994 17.4674 20.8761 18.3256 20.6753 19.1173H22.57C23.0284 18.2374 23.288 17.2382 23.288 16.1793C23.288 15.1193 23.0278 14.1191 22.5685 13.2385H21.566C21.4558 13.6121 21.1955 13.9216 20.8551 14.0974C20.9482 14.6427 21.0035 15.2062 21.0212 15.7796H21.9983C22.219 15.7796 22.398 15.9585 22.398 16.1793C22.398 16.4001 22.219 16.5791 21.9983 16.5791ZM22.0732 12.439H21.5659C21.3929 11.8525 20.8498 11.423 20.208 11.423C20.1418 11.423 20.0767 11.4279 20.0129 11.4367C19.7773 10.9703 19.5096 10.5663 19.2173 10.2321C20.3683 10.6806 21.3579 11.454 22.0732 12.439ZM16.5083 12.4391V9.8124C14.551 9.93403 12.8301 10.942 11.743 12.4391H13.6149C13.8266 11.8291 14.0895 11.2759 14.3966 10.8062C14.5174 10.6215 14.7651 10.5695 14.9499 10.6904C15.1347 10.8112 15.1866 11.059 15.0657 11.2438C14.8375 11.5929 14.6358 11.9958 14.4647 12.4391H16.5083ZM11.7409 19.9168H13.6095C13.9419 20.8777 14.3984 21.6736 14.9385 22.2476C13.6415 21.8256 12.5258 20.9988 11.7409 19.9168ZM19.9244 21.0923C19.711 21.4879 19.4754 21.833 19.2219 22.1247C20.372 21.6756 21.3607 20.9019 22.0752 19.9168H20.4354C20.2898 20.3359 20.1196 20.7306 19.9244 21.0923Z" fill="#0E1F4F"/>
</svg>
