<?xml version="1.0" encoding="UTF-8"?>
<svg width="42px" height="42px" viewBox="0 0 42 42" version="1.1" xmlns="http://www.w3.org/2000/svg" xmlns:xlink="http://www.w3.org/1999/xlink">
    <title>Group</title>
    <defs>
        <linearGradient x1="50%" y1="0%" x2="50%" y2="100%" id="linearGradient-1">
            <stop stop-color="#45D8C8" offset="0%"></stop>
            <stop stop-color="#21AF97" offset="100%"></stop>
        </linearGradient>
    </defs>
    <g id="Page-1" stroke="none" strokeWidth="1" fill="none" fillRule="evenodd">
        <g id="Main-/-Pools" transform="translate(-209.000000, -324.000000)">
            <g id="Group" transform="translate(209.112740, 324.060976)">
                <circle id="Oval" fill="#F5F5FA" cx="20.5" cy="20.5" r="20.5"></circle>
                <path d="M28.6391436,25.1301698 C28.6570983,25.052266 28.6482096,24.97051 28.6139722,24.8983854 L27.2959932,22.5337772 L28.4347512,21.1766182 C28.5352097,21.0589501 28.5402513,20.8863022 28.4468335,20.7628626 L26.6425415,18.424686 L27.2063828,17.2881288 C27.2706423,17.1582785 27.244611,17.0014012 27.1419438,16.8997882 L24.5452534,14.406072 L24.7375636,13.631424 C24.7678524,13.4993132 24.7171383,13.3617007 24.6086856,13.2817141 L20.6668311,10.6751554 C20.6154772,10.6485853 20.5583907,10.6353109 20.5006993,10.6364484 C20.4431414,10.6364484 20.3863392,10.6497604 20.3345675,10.6751554 L16.3927131,13.2817141 C16.2865659,13.3634113 16.236738,13.4996837 16.2648419,13.631424 L16.4561452,14.406072 L13.8594549,16.8997882 C13.7565307,17.0013296 13.7308427,17.1585952 13.7960228,17.2881288 L14.3578503,18.424686 L12.5666475,20.7628626 C12.471281,20.8839749 12.471281,21.0555059 12.5666475,21.1766182 L13.7144672,22.5337772 L12.3964882,24.8983854 C12.3245964,25.0177768 12.3406759,25.1709688 12.4357557,25.2724936 L13.7275563,26.6296527 L13.4466426,27.3270393 C13.4073919,27.4042569 13.4073919,27.4958384 13.4466426,27.5730561 C13.4739958,27.6514909 13.535091,27.713177 13.6127744,27.7407949 L20.3949791,30.3504033 L20.4725073,30.363619 L20.5731932,30.363619 L27.3795626,27.7407949 C27.45895,27.7106623 27.5235941,27.6504978 27.5597904,27.5730561 C27.5849545,27.4885129 27.5849545,27.3983667 27.5597904,27.3138235 L27.1056968,26.2169137 L28.5012039,25.3243402 C28.5723533,25.2822718 28.6224864,25.2117022 28.6391436,25.1301698 Z M27.3986929,20.4273851 L25.8501432,20.0014303 L26.3364563,19.0315953 L27.3986929,20.4273851 Z M25.2480413,19.8458907 L21.7169855,18.8770723 L26.3616277,17.6236064 L25.2480413,19.8458907 Z M26.3233671,16.9780663 L23.7770197,17.6754529 L24.3811354,15.1044752 L26.3233671,16.9780663 Z M20.5006993,11.3186623 L23.853541,13.5409467 L20.5006993,15.5426292 L17.1478576,13.5409467 L20.5006993,11.3186623 Z M20.3466498,16.1759701 C20.4410092,16.2269359 20.5543483,16.2269359 20.6487077,16.1759701 L23.9844328,14.1986859 L23.1134994,17.8431916 L20.5409737,18.5659932 L17.9050159,17.8431916 L17.0220002,14.1986859 L20.3466498,16.1759701 Z M16.6212702,15.1044752 L17.2354544,17.6754529 L14.6780316,16.9780663 L16.6212702,15.1044752 Z M27.6534283,21.1461202 L25.2993911,23.924484 L16.6615445,21.6544195 L14.6528601,17.6225898 L27.6534283,21.1461202 Z M14.6780316,19.0315953 L15.8812285,21.4510998 L13.3227989,20.7791282 L14.6780316,19.0315953 Z M14.1403687,23.0237777 L16.0604495,25.2857094 L13.1405573,24.8068915 L14.1403687,23.0237777 Z M13.5261844,25.5185105 L14.1403687,25.6201703 L13.987326,26.008511 L13.5261844,25.5185105 Z M20.5006993,29.718079 L14.1282864,27.2629935 L14.7676421,25.72488 L26.0797071,27.5730561 L20.5006993,29.718079 Z M26.0031858,26.9132837 L26.5791094,26.5523912 L26.7804812,27.0434083 L26.0031858,26.9132837 Z M25.0819095,26.7587607 L16.994815,25.4371826 L13.6792271,21.5222617 L27.5738864,25.1820164 L25.0819095,26.7587607 Z M25.9528428,24.0973057 L26.8741192,23.0237777 L27.7188742,24.5618913 L25.9528428,24.0973057 Z" id="Shape" fill="url(#linearGradient-1)" fillRule="nonzero"></path>
            </g>
        </g>
    </g>
</svg>