<svg width="34" height="33" viewBox="0 0 34 33" fill="none" xmlns="http://www.w3.org/2000/svg">
<ellipse cx="16.8415" cy="16.4431" rx="16.6809" ry="16" fill="#3E7EFF"/>
<ellipse cx="16.8415" cy="16.4431" rx="16.6809" ry="16" fill="white" fill-opacity="0.9"/>
<path fillRule="evenodd" clipRule="evenodd" d="M16.8416 11.4431C21.3112 11.4431 24.8209 15.8693 24.9681 16.0577L25.2692 16.443L24.9681 16.8283C24.8209 17.0167 21.3112 21.4431 16.8416 21.4431C12.3716 21.4431 8.86191 17.0167 8.71462 16.8283L8.41357 16.443L8.71462 16.0577C8.86191 15.8693 12.3716 11.4431 16.8416 11.4431ZM10.0315 16.4432C10.9542 17.4699 13.698 20.1916 16.8416 20.1916C19.9845 20.1916 22.7281 17.4701 23.6515 16.4432C22.7286 15.4166 19.9847 12.6951 16.8416 12.6951C13.6982 12.6951 10.9546 15.4164 10.0315 16.4432Z" fill="#0E1F4F"/>
<path fillRule="evenodd" clipRule="evenodd" d="M13.4165 16.4432C13.4165 14.555 14.9528 13.0189 16.8413 13.0189C18.7298 13.0189 20.2661 14.555 20.2661 16.4432C20.2661 18.3319 18.7298 19.8682 16.8413 19.8682C14.9528 19.8682 13.4165 18.3319 13.4165 16.4432ZM14.6683 16.443C14.6683 17.6414 15.6429 18.6163 16.8413 18.6163C18.0394 18.6163 19.0143 17.6414 19.0143 16.443C19.0143 15.2451 18.0394 14.2704 16.8413 14.2704C15.6429 14.2704 14.6683 15.2451 14.6683 16.443Z" fill="#0E1F4F"/>
</svg>
