<svg width="34" height="33" viewBox="0 0 34 33" fill="none" xmlns="http://www.w3.org/2000/svg">
<ellipse cx="17.3184" cy="16.3981" rx="16.6809" ry="16" fill="#3E7EFF"/>
<ellipse cx="17.3184" cy="16.3981" rx="16.6809" ry="16" fill="white" fill-opacity="0.9"/>
<path fillRule="evenodd" clipRule="evenodd" d="M23.8844 9.63339C24.0554 9.70443 24.1913 9.84035 24.2624 10.0114C24.2982 10.0955 24.3173 10.1859 24.3184 10.2774V14.4774C24.3184 14.864 24.005 15.1774 23.6184 15.1774C23.2318 15.1774 22.9184 14.864 22.9184 14.4774V11.9644L19.2154 15.6744C19.0839 15.8069 18.905 15.8815 18.7184 15.8815C18.5317 15.8815 18.3528 15.8069 18.2214 15.6744C18.0888 15.543 18.0143 15.364 18.0143 15.1774C18.0143 14.9907 18.0888 14.8118 18.2214 14.6804L21.9314 10.9774H19.4184C19.0318 10.9774 18.7184 10.664 18.7184 10.2774C18.7184 9.89079 19.0318 9.57739 19.4184 9.57739H23.6184C23.7098 9.5785 23.8002 9.59752 23.8844 9.63339ZM16.6184 16.5774H11.0184C10.6318 16.5774 10.3184 16.8908 10.3184 17.2774V22.8774C10.3184 23.264 10.6318 23.5774 11.0184 23.5774H16.6184C17.005 23.5774 17.3184 23.264 17.3184 22.8774V17.2774C17.3184 16.8908 17.005 16.5774 16.6184 16.5774ZM15.9184 22.1774H11.7184V17.9774H15.9184V22.1774Z" fill="#0E1F4F"/>
</svg>
