<svg width="34" height="33" viewBox="0 0 34 33" fill="none" xmlns="http://www.w3.org/2000/svg">
<ellipse cx="16.9079" cy="16.5774" rx="16.6809" ry="16" fill="#3E7EFF"/>
<ellipse cx="16.9079" cy="16.5774" rx="16.6809" ry="16" fill="white" fill-opacity="0.9"/>
<path fillRule="evenodd" clipRule="evenodd" d="M18.1511 14.7034V10.7567C18.1511 10.2044 17.7034 9.75671 17.1511 9.75671H12.1511C11.5988 9.75671 11.1511 10.2044 11.1511 10.7567V22.2567C10.875 22.2567 10.6511 22.4805 10.6511 22.7567V23.7567H18.6511V22.7567C18.6511 22.4805 18.4272 22.2567 18.1511 22.2567V15.8363C18.9437 16.3651 19.1511 19.3905 19.1511 20.7567C19.1511 22.2567 20.6511 22.2567 21.1511 22.2567C21.6511 22.2567 23.1511 21.2567 23.1511 20.2567C23.1511 20.0964 23.1543 19.9233 23.1576 19.7436C23.1751 18.8016 23.196 17.6766 22.7761 17.2567C22.2761 16.7567 22.1511 13.7567 22.1511 13.7567C22.1511 13.7567 22.6511 13.7567 22.6511 13.2567C22.6511 12.7567 21.1511 10.2567 19.1511 10.2567V10.7567C21.1511 11.7567 21.1511 13.2567 21.1511 13.7567C21.4131 16.1145 21.8123 17.2369 22.0791 17.987C22.3215 18.6685 22.4546 19.0426 22.2761 19.7567C21.9011 21.7567 20.1511 21.7567 19.9011 20.2567C20.099 15.1109 18.7301 14.6656 18.1511 14.7034ZM16.5261 15.2567L12.7761 15.2567C12.5 15.2567 12.1511 14.9079 12.1511 14.6317V11.3817C12.1511 11.1056 12.5 10.7567 12.7761 10.7567H16.5261C16.8023 10.7567 17.1511 11.1056 17.1511 11.3817V14.6317C17.1511 14.9079 16.8023 15.2567 16.5261 15.2567Z" fill="#0E1F4F"/>
</svg>
