<svg width="41" height="40" viewBox="0 0 41 40" fill="none" xmlns="http://www.w3.org/2000/svg">
<circle cx="20.372" cy="19.9397" r="19.7245" fill="#DAFECD"/>
<path fillRule="evenodd" clipRule="evenodd" d="M29.0525 21.6399C29.4419 21.1433 29.6286 20.6109 29.6048 20.0626C29.581 19.4586 29.3108 18.9858 29.0883 18.6958C29.3465 18.0521 29.4459 17.0389 28.5837 16.2522C27.9519 15.6761 26.8792 15.4179 25.3932 15.4894C24.3506 15.5369 23.478 15.7309 23.4386 15.7396L23.4383 15.7397H23.4344C23.2357 15.7754 23.0251 15.8192 22.8106 15.8668C22.7947 15.6125 22.8384 14.9808 23.3072 13.5584C23.8635 11.8658 23.8317 10.5705 23.2039 9.70435C22.5444 8.79448 21.4915 8.72296 21.1815 8.72296C20.8835 8.72296 20.6094 8.84613 20.4147 9.07261C19.9737 9.58515 20.0253 10.5308 20.081 10.9678C19.5565 12.3744 18.0864 15.8231 16.8428 16.7807C16.8189 16.7966 16.7991 16.8164 16.7792 16.8363C16.4137 17.2217 16.1673 17.6389 16.0004 18.0044C15.766 17.8773 15.4998 17.8058 15.2137 17.8058H12.7901C11.8762 17.8058 11.1372 18.5488 11.1372 19.4586V25.9151C11.1372 26.829 11.8802 27.568 12.7901 27.568H15.2137C15.5674 27.568 15.8971 27.4568 16.1673 27.266L17.101 27.3773C17.2441 27.3972 19.7869 27.719 22.3973 27.6673C22.8702 27.7031 23.3152 27.723 23.7284 27.723C24.4396 27.723 25.0594 27.6673 25.5759 27.5561C26.7917 27.2978 27.6222 26.7813 28.0433 26.0224C28.3651 25.4423 28.3651 24.8662 28.3135 24.5007C29.1042 23.7855 29.2432 22.9948 29.2154 22.4386C29.1995 22.1167 29.128 21.8426 29.0525 21.6399ZM12.7901 26.4952C12.4682 26.4952 12.21 26.233 12.21 25.9151V19.4547C12.21 19.1328 12.4722 18.8746 12.7901 18.8746H15.2137C15.5356 18.8746 15.7938 19.1368 15.7938 19.4547V25.9112C15.7938 26.233 15.5316 26.4913 15.2137 26.4913H12.7901V26.4952ZM27.9638 21.8227C27.8367 21.6161 27.8685 21.3499 28.0354 21.1751C28.381 20.8175 28.5479 20.4559 28.532 20.1023C28.5125 19.5827 28.1087 19.1936 28.0915 19.1771L28.091 19.1765C27.8923 18.9977 27.8486 18.7077 27.9956 18.4852C28.0473 18.4018 28.5042 17.623 27.8605 17.035C27.1017 16.3436 24.9164 16.5065 23.6966 16.7727C23.6887 16.7747 23.6797 16.7767 23.6708 16.7787C23.6618 16.7807 23.6529 16.7827 23.6449 16.7847C23.4264 16.8204 23.196 16.8681 22.9536 16.9237C22.6993 17.0151 22.3497 17.0032 22.0874 16.7688C21.559 16.2999 21.6146 15.2351 22.2821 13.2127C22.7192 11.8857 22.7351 10.8844 22.3298 10.3242C21.9881 9.85136 21.4199 9.79176 21.2094 9.78779C21.114 9.95069 21.0902 10.495 21.1577 10.94C21.1736 11.0314 21.1656 11.1228 21.1339 11.2062C21.0584 11.4128 19.3141 16.1847 17.5301 17.5992C17.0613 18.1038 16.8626 18.6958 16.7911 18.962C16.8388 19.1169 16.8666 19.2838 16.8666 19.4547V25.9151C16.8666 26.0343 16.8547 26.1535 16.8309 26.2648L17.2321 26.3125H17.2361C17.2639 26.3164 19.8465 26.6502 22.4013 26.5946H22.4569C23.6569 26.6899 24.6343 26.6621 25.3534 26.5072C26.2514 26.3164 26.8434 25.9747 27.1096 25.498C27.374 25.0258 27.2326 24.5285 27.2181 24.4772C27.2173 24.4745 27.2169 24.4731 27.2169 24.4729C27.1374 24.2504 27.2129 24.004 27.3997 23.861C27.9241 23.4676 28.1744 23.0067 28.1466 22.4862C28.1287 22.1419 27.9942 21.8817 27.9682 21.8315C27.9654 21.8261 27.9638 21.8231 27.9638 21.8227Z" fill="#37A648"/>
</svg>
