<svg width="42" height="43" viewBox="0 0 42 43" fill="none" xmlns="http://www.w3.org/2000/svg">
        <g filter="url(#filter0_i_0_73)">
        <circle cx="21" cy="21.2195" r="21" fill="#07184A"/>
        </g>
        <path fillRule="evenodd" clipRule="evenodd" d="M32.2826 27.6379C32.3075 27.5299 32.2952 27.4166 32.2477 27.3166L30.4207 24.0388L31.9992 22.1574C32.1385 21.9943 32.1455 21.755 32.016 21.5839L29.5149 18.3427L30.2965 16.7672C30.3855 16.5872 30.3495 16.3697 30.2071 16.2289L26.6076 12.772L26.8742 11.6982C26.9161 11.5151 26.8458 11.3243 26.6955 11.2134L21.2313 7.6002C21.1601 7.56337 21.0809 7.54496 21.001 7.54665C20.9212 7.54669 20.8424 7.56499 20.7707 7.6002L15.3064 11.2134C15.1593 11.3267 15.0902 11.5156 15.1292 11.6982L15.3944 12.772L11.7948 16.2289C11.6521 16.3696 11.6165 16.5876 11.7069 16.7672L12.4857 18.3427L10.0027 21.5839C9.8705 21.7518 9.8705 21.9896 10.0027 22.1574L11.5938 24.0388L9.76682 27.3166C9.66716 27.4821 9.68945 27.6945 9.82126 27.8352L11.612 29.7165L11.2226 30.6832C11.1681 30.7903 11.1681 30.9172 11.2226 31.0243C11.2605 31.133 11.3452 31.2185 11.4529 31.2568L20.8544 34.8743L20.9619 34.8926H21.1015L30.5365 31.2568C30.6466 31.215 30.7362 31.1316 30.7864 31.0243C30.8212 30.9071 30.8212 30.7821 30.7864 30.6649L30.1569 29.1444L32.0914 27.9071C32.19 27.8488 32.2595 27.7509 32.2826 27.6379ZM30.5631 21.1189L28.4164 20.5284L29.0906 19.184L30.5631 21.1189ZM22.687 18.9698L27.5818 20.3128L29.1255 17.2322L22.687 18.9698ZM29.0724 16.3374L25.5426 17.3041L26.3801 13.7402L29.0724 16.3374ZM25.6487 11.5728L21.001 8.49223L16.3532 11.5728L21.001 14.3475L25.6487 11.5728ZM20.7874 15.2255C20.9182 15.2961 21.0753 15.2961 21.2061 15.2255L25.8302 12.4846L24.6229 17.5366L21.0568 18.5386L17.4028 17.5366L16.1788 12.4846L20.7874 15.2255ZM16.4747 17.3041L15.6233 13.7402L12.9295 16.3374L16.4747 17.3041ZM30.9162 22.1152L27.653 25.9666L15.6791 22.8198L12.8946 17.2308L30.9162 22.1152ZM14.5974 22.5379L12.9295 19.184L11.0509 21.6064L14.5974 22.5379ZM12.1842 24.718L14.8458 27.8535L10.7983 27.1898L12.1842 24.718ZM12.1842 28.3172L11.3328 28.1762L11.9721 28.8555L12.1842 28.3172ZM21.001 33.9977L12.1675 30.5944L13.0537 28.4623L28.7347 31.0243L21.001 33.9977ZM29.4269 29.6094L28.6286 30.1097L29.7061 30.2901L29.4269 29.6094ZM27.3515 29.8955L16.1411 28.0635L11.545 22.6366L30.8059 27.7098L27.3515 29.8955ZM29.8359 24.718L28.5588 26.2061L31.0069 26.8502L29.8359 24.718Z" fill="url(#paint0_linear_0_73)"/>
        <defs>
        <filter id="filter0_i_0_73" x="0" y="0.219513" width="42" height="43" filterUnits="userSpaceOnUse" color-interpolation-filters="sRGB">
        <feFlood flood-opacity="0" result="BackgroundImageFix"/>
        <feBlend mode="normal" in="SourceGraphic" in2="BackgroundImageFix" result="shape"/>
        <feColorMatrix in="SourceAlpha" type="matrix" values="0 0 0 0 0 0 0 0 0 0 0 0 0 0 0 0 0 0 127 0" result="hardAlpha"/>
        <feOffset dy="1"/>
        <feGaussianBlur stdDeviation="1.5"/>
        <feComposite in2="hardAlpha" operator="arithmetic" k2="-1" k3="1"/>
        <feColorMatrix type="matrix" values="0 0 0 0 0.938349 0 0 0 0 0.938349 0 0 0 0 0.938349 0 0 0 0.0986943 0"/>
        <feBlend mode="normal" in2="shape" result="effect1_innerShadow_0_73"/>
        </filter>
        <linearGradient id="paint0_linear_0_73" x1="9.70486" y1="7.54645" x2="9.70486" y2="34.8926" gradientUnits="userSpaceOnUse">
        <stop stop-color="#45D8C8"/>
        <stop offset="1" stop-color="#21AF97"/>
        </linearGradient>
        </defs>
      </svg>