<svg width="20" height="20" viewBox="0 0 20 20" fill="none" xmlns="http://www.w3.org/2000/svg">
<circle cx="9.91873" cy="10.1273" r="9.12869" fill="#F7931A"/>
<path fillRule="evenodd" clipRule="evenodd" d="M14.0202 8.99763C14.1994 7.80177 13.2882 7.15877 12.0433 6.72972L12.4473 5.10938L11.4614 4.86405L11.0677 6.4416C10.814 6.37791 10.5538 6.31859 10.294 6.25937L10.2775 6.2556L10.674 4.66778L9.68812 4.42188L9.28417 6.04165L9.24107 6.03179C9.04137 5.98614 8.84485 5.94121 8.65429 5.89331L8.65543 5.88817L7.29526 5.5487L7.03281 6.60192C7.03281 6.60192 7.76482 6.76966 7.74941 6.77993C8.14879 6.87977 8.22068 7.14394 8.2087 7.3539L7.74884 9.1996C7.77623 9.20645 7.8116 9.21672 7.85154 9.23212L7.74713 9.20645L7.10242 11.7921C7.05335 11.9131 6.92954 12.0951 6.64998 12.0261C6.66025 12.0403 5.93337 11.8475 5.93337 11.8475L5.44385 12.976L6.72757 13.2961C6.86538 13.3307 7.00168 13.3663 7.13655 13.4015L7.13674 13.4015L7.13741 13.4017C7.23564 13.4274 7.33313 13.4528 7.42991 13.4775L7.02197 15.1161L8.0073 15.3615L8.41124 13.7411C8.68054 13.8136 8.94185 13.8809 9.19745 13.9448L8.79465 15.5583L9.78054 15.8036L10.1885 14.1685C11.8704 14.4868 13.1348 14.3585 13.6671 12.8374C14.0961 11.613 13.646 10.9061 12.7611 10.4457C13.4058 10.2973 13.8907 9.87341 14.0202 8.99763ZM11.7666 12.1573C11.4876 13.281 9.72893 12.8165 8.92391 12.6038C8.85138 12.5847 8.78659 12.5675 8.73132 12.5538L9.27333 10.3829C9.34074 10.3998 9.42313 10.4183 9.51647 10.4392L9.51651 10.4392C10.3492 10.6263 12.0534 11.0092 11.7666 12.1573ZM9.68372 9.4315C10.3545 9.6106 11.8172 10.0011 12.0718 8.97994C12.3323 7.93548 10.9104 7.62093 10.2159 7.46729C10.1376 7.44997 10.0685 7.43469 10.0122 7.42065L9.52152 9.38902C9.568 9.40061 9.62257 9.41518 9.68372 9.4315Z" fill="white"/>
</svg>
