<svg width="19" height="19" viewBox="0 0 19 19" fill="none" xmlns="http://www.w3.org/2000/svg">
<g filter="url(#filter0_i_0_338)">
<circle cx="9.79004" cy="9.60254" r="9" fill="#07184A"/>
</g>
<path fillRule="evenodd" clipRule="evenodd" d="M14.6254 12.3533C14.636 12.307 14.6308 12.2584 14.6104 12.2156L13.8274 10.8108L14.504 10.0045C14.5636 9.93463 14.5666 9.83206 14.5111 9.75872L13.4392 8.36964L13.7742 7.69442C13.8124 7.61727 13.7969 7.52407 13.7359 7.46371L12.1932 5.98221L12.3075 5.522C12.3255 5.44352 12.2954 5.36176 12.2309 5.31424L9.88911 3.76571C9.8586 3.74993 9.82468 3.74204 9.79041 3.74276C9.75621 3.74278 9.72247 3.75062 9.69171 3.76571L7.34989 5.31424C7.28683 5.36278 7.25723 5.44374 7.27392 5.522L7.38758 5.98221L5.84491 7.46371C5.78376 7.52403 5.7685 7.61746 5.80722 7.69442L6.141 8.36964L5.07686 9.75872C5.02021 9.83068 5.02021 9.93258 5.07686 10.0045L5.75877 10.8108L4.97577 12.2156C4.93306 12.2865 4.94261 12.3775 4.9991 12.4379L5.76655 13.2441L5.59966 13.6584C5.57634 13.7043 5.57634 13.7587 5.59966 13.8046C5.61591 13.8512 5.65221 13.8878 5.69836 13.9042L9.7276 15.4546L9.77366 15.4624H9.83348L13.8771 13.9042C13.9242 13.8863 13.9626 13.8506 13.9841 13.8046C13.9991 13.7544 13.9991 13.7008 13.9841 13.6506L13.7144 12.9989L14.5434 12.4687C14.5857 12.4437 14.6155 12.4017 14.6254 12.3533ZM13.8884 9.55942L12.9685 9.30636L13.2574 8.73019L13.8884 9.55942ZM10.513 8.63839L12.6108 9.21396L13.2723 7.89372L10.513 8.63839ZM13.2496 7.51021L11.7368 7.92452L12.0957 6.39713L13.2496 7.51021ZM11.7823 5.46825L9.79041 4.14801L7.79852 5.46825L9.79041 6.65743L11.7823 5.46825ZM9.69889 7.03369C9.75495 7.06397 9.82228 7.06397 9.87834 7.03369L11.8601 5.85901L11.3426 8.02417L9.81433 8.45358L8.24834 8.02417L7.72375 5.85901L9.69889 7.03369ZM7.85056 7.92452L7.48568 6.39713L6.33122 7.51021L7.85056 7.92452ZM14.0398 9.98641L12.6413 11.637L7.5096 10.2884L6.31626 7.89312L14.0398 9.98641ZM7.04602 10.1676L6.33122 8.73019L5.52608 9.76839L7.04602 10.1676ZM6.0118 11.1019L7.1525 12.4457L5.41782 12.1612L6.0118 11.1019ZM6.0118 12.6444L5.64691 12.584L5.92087 12.8751L6.0118 12.6444ZM9.79041 15.0789L6.00462 13.6204L6.38445 12.7066L13.1048 13.8046L9.79041 15.0789ZM13.4015 13.1982L13.0594 13.4126L13.5212 13.4899L13.4015 13.1982ZM12.5121 13.3208L7.70759 12.5357L5.73784 10.2099L13.9925 12.3841L12.5121 13.3208ZM13.5768 11.1019L13.0295 11.7397L14.0787 12.0157L13.5768 11.1019Z" fill="url(#paint0_linear_0_338)"/>
<defs>
<filter id="filter0_i_0_338" x="0.790039" y="0.602539" width="18" height="19" filterUnits="userSpaceOnUse" color-interpolation-filters="sRGB">
<feFlood flood-opacity="0" result="BackgroundImageFix"/>
<feBlend mode="normal" in="SourceGraphic" in2="BackgroundImageFix" result="shape"/>
<feColorMatrix in="SourceAlpha" type="matrix" values="0 0 0 0 0 0 0 0 0 0 0 0 0 0 0 0 0 0 127 0" result="hardAlpha"/>
<feOffset dy="1"/>
<feGaussianBlur stdDeviation="1.5"/>
<feComposite in2="hardAlpha" operator="arithmetic" k2="-1" k3="1"/>
<feColorMatrix type="matrix" values="0 0 0 0 0.938349 0 0 0 0 0.938349 0 0 0 0 0.938349 0 0 0 0.0986943 0"/>
<feBlend mode="normal" in2="shape" result="effect1_innerShadow_0_338"/>
</filter>
<linearGradient id="paint0_linear_0_338" x1="4.94922" y1="3.74268" x2="4.94922" y2="15.4624" gradientUnits="userSpaceOnUse">
<stop stop-color="#45D8C8"/>
<stop offset="1" stop-color="#21AF97"/>
</linearGradient>
</defs>
</svg>
