<?xml version="1.0" encoding="UTF-8"?>
<svg width="21px" height="21px" viewBox="0 0 21 21" version="1.1" xmlns="http://www.w3.org/2000/svg" xmlns:xlink="http://www.w3.org/1999/xlink">
    <title>qr-code-svgrepo-com (2)</title>
    <g id="Page-1" stroke="none" stroke-width="1" fill="none" fillRule="evenodd">
        <g id="Project-Detail" transform="translate(-1685.000000, -947.000000)">
            <g id="Group" transform="translate(1677.877839, 939.977839)">
                <g id="qr-code-svgrepo-com-(2)" transform="translate(7.992062, 7.992062)">
                    <polygon id="Path" points="0 0 19.2601977 0 19.2601977 19.2601977 0 19.2601977"></polygon>
                    <path d="M12.8401318,13.64264 L12.8401318,12.8401318 L10.4326071,12.8401318 L10.4326071,10.4326071 L12.8401318,10.4326071 L12.8401318,12.0376235 L14.4451482,12.0376235 L14.4451482,13.64264 L13.64264,13.64264 L13.64264,15.2476565 L12.0376235,15.2476565 L12.0376235,16.852673 L10.4326071,16.852673 L10.4326071,14.4451482 L12.0376235,14.4451482 L12.0376235,13.64264 L12.8401318,13.64264 Z M16.852673,16.852673 L13.64264,16.852673 L13.64264,15.2476565 L15.2476565,15.2476565 L15.2476565,13.64264 L16.852673,13.64264 L16.852673,16.852673 Z M2.40752471,2.40752471 L8.8275906,2.40752471 L8.8275906,8.8275906 L2.40752471,8.8275906 L2.40752471,2.40752471 Z M4.01254118,4.01254118 L4.01254118,7.22257412 L7.22257412,7.22257412 L7.22257412,4.01254118 L4.01254118,4.01254118 Z M10.4326071,2.40752471 L16.852673,2.40752471 L16.852673,8.8275906 L10.4326071,8.8275906 L10.4326071,2.40752471 Z M12.0376235,4.01254118 L12.0376235,7.22257412 L15.2476565,7.22257412 L15.2476565,4.01254118 L12.0376235,4.01254118 Z M2.40752471,10.4326071 L8.8275906,10.4326071 L8.8275906,16.852673 L2.40752471,16.852673 L2.40752471,10.4326071 Z M4.01254118,12.0376235 L4.01254118,15.2476565 L7.22257412,15.2476565 L7.22257412,12.0376235 L4.01254118,12.0376235 Z M14.4451482,10.4326071 L16.852673,10.4326071 L16.852673,12.0376235 L14.4451482,12.0376235 L14.4451482,10.4326071 Z M4.81504942,4.81504942 L6.42006589,4.81504942 L6.42006589,6.42006589 L4.81504942,6.42006589 L4.81504942,4.81504942 Z M4.81504942,12.8401318 L6.42006589,12.8401318 L6.42006589,14.4451482 L4.81504942,14.4451482 L4.81504942,12.8401318 Z M12.8401318,4.81504942 L14.4451482,4.81504942 L14.4451482,6.42006589 L12.8401318,6.42006589 L12.8401318,4.81504942 Z" id="Shape" fill="#4280FE" fillRule="nonzero"></path>
                </g>
            </g>
        </g>
    </g>
</svg>